<svg width="253" height="77" viewBox="0 0 253 77" fill="none" xmlns="http://www.w3.org/2000/svg">
<g clip-path="url(#clip0_51_2)">
<path d="M9.78255 0H67.6329C73.033 0 77.4154 4.36078 77.4154 9.73005V67.27C77.4154 72.6411 73.0311 77 67.6329 77H9.78255C4.38243 77 0 72.6392 0 67.27V9.73005C0 4.36078 4.38431 0 9.78255 0Z" fill="url(#paint0_linear_51_2)"/>
<path d="M222.759 26.4242C224.671 26.4242 226.221 24.8824 226.221 22.9804C226.221 21.0785 224.671 19.5366 222.759 19.5366C220.846 19.5366 219.296 21.0785 219.296 22.9804C219.296 24.8824 220.846 26.4242 222.759 26.4242Z" fill="#EC9F37"/>
<path d="M100.28 20.252V57.411H93.3567V20.252H100.28ZM125.003 20.252L109.065 37.5849L126.674 57.411H117.086L102.638 40.052V35.5829L116.536 20.252H125.001H125.003Z" fill="white"/>
<path d="M127.327 48.9136C127.327 43.492 131.298 40.7803 139.241 40.7803C141.103 40.7803 142.968 40.954 144.832 41.2995V39.247C144.832 36.8043 143.064 35.5829 139.528 35.5829C136.531 35.5829 133.206 36.0161 129.548 36.8827V31.4256C133.206 30.561 136.533 30.1277 139.528 30.1277C147.679 30.1277 151.755 33.1251 151.755 39.1182V57.411H147.731L145.276 54.9683C142.889 56.5968 140.258 57.411 137.386 57.411C130.681 57.411 127.327 54.5779 127.327 48.9136ZM139.241 45.4586C135.914 45.4586 134.252 46.5847 134.252 48.837C134.252 51.263 135.645 52.4751 138.432 52.4751C140.73 52.4751 142.865 51.7654 144.832 50.3442V45.9778C143.09 45.6323 141.227 45.4586 139.241 45.4586Z" fill="white"/>
<path d="M156.461 43.7684C156.461 34.621 160.99 30.0474 170.045 30.0474C179.101 30.0474 183.63 34.621 183.63 43.7684C183.63 52.9158 179.101 57.4633 170.045 57.4633C160.99 57.4633 156.494 52.899 156.461 43.7684ZM170.045 52.2136C174.486 52.2136 176.707 49.3637 176.707 43.6638C176.707 37.964 174.486 35.3233 170.045 35.3233C165.605 35.3233 163.384 38.1041 163.384 43.6638C163.384 49.2236 165.603 52.2136 170.045 52.2136Z" fill="white"/>
<path d="M188.336 57.4111V30.1259H193.691L194.553 34.1281C197.183 31.4612 200.178 30.1259 203.539 30.1259C210.036 30.1259 213.284 33.4875 213.284 40.2089V57.4111H206.361V40.2089C206.361 37.1946 204.853 35.6875 201.842 35.6875C199.594 35.6875 197.401 36.5802 195.257 38.3637V57.4111H188.334H188.336Z" fill="white"/>
<path d="M226.221 30.1259V57.4111H219.298V30.1259H226.221Z" fill="white"/>
<path d="M253 56.6323C250.736 57.1515 248.385 57.4111 245.946 57.4111C236.191 57.4111 231.315 52.6899 231.315 43.2493C231.315 34.5016 236.191 30.1259 245.946 30.1259C248.385 30.1259 250.736 30.3854 253 30.9046V36.3617C250.736 35.8425 248.559 35.5829 246.468 35.5829C240.981 35.5829 238.238 38.1377 238.238 43.2493C238.238 49.0518 240.981 51.954 246.468 51.954C248.558 51.954 250.736 51.6944 253 51.1753V56.6323Z" fill="white"/>
<path d="M51.5621 61.0696H43.6065C43.3399 61.0696 43.0883 60.9519 42.9174 60.7484L27.1076 41.7552C26.9743 41.5964 26.903 41.3947 26.903 41.1874V35.8144C26.903 35.6071 26.9762 35.4073 27.1076 35.2467L42.9174 16.2535C43.0864 16.0499 43.3399 15.9323 43.6065 15.9323H51.6147C52.3845 15.9323 52.7938 16.8362 52.285 17.4095L34.0718 37.9472C33.7733 38.2834 33.7733 38.7876 34.0718 39.1238L52.2343 59.5942C52.7432 60.1676 52.3338 61.0715 51.564 61.0715L51.5621 61.0696Z" fill="white"/>
<path d="M24.4958 15.9266H17.0603C16.7907 15.9266 16.5721 16.144 16.5721 16.4122V60.5878C16.5721 60.8559 16.7907 61.0733 17.0603 61.0733H24.4958C24.7654 61.0733 24.984 60.8559 24.984 60.5878V16.4122C24.984 16.144 24.7654 15.9266 24.4958 15.9266Z" fill="white"/>
<path d="M50.5539 38.4831C50.5539 39.0135 50.5201 39.542 50.4675 40.0556C50.4506 40.2088 50.4337 40.3451 50.4168 40.4833C50.3999 40.6551 50.383 40.8251 50.3473 40.9969C50.3135 41.2005 50.2779 41.4059 50.2272 41.6113C50.1934 41.8149 50.1408 42.0203 50.0901 42.2257C49.953 42.7898 49.7803 43.337 49.5925 43.8842C49.3184 44.6013 49.0086 45.3016 48.6312 45.9852C48.0021 47.1468 47.2135 48.2356 46.2822 49.2179C46.0193 49.4962 45.5706 49.4906 45.3171 49.203L42.4706 45.9852C42.2734 45.7611 42.2716 45.4268 42.4706 45.2027C42.6527 44.9954 42.8574 44.7563 42.9644 44.6162C42.9813 44.5994 42.9982 44.5658 43.0151 44.5303C43.2048 44.2913 43.3587 44.0522 43.5127 43.7945C43.5822 43.7086 43.6498 43.6059 43.7023 43.4882C43.8056 43.2996 43.9089 43.1128 43.9952 42.9074C44.0647 42.8047 44.1154 42.6852 44.1492 42.5656C44.2694 42.3434 44.3558 42.1044 44.4421 41.8653C44.4759 41.7794 44.4928 41.7122 44.5116 41.6263C44.6149 41.3536 44.6825 41.0959 44.7519 40.8232C44.7688 40.7541 44.7857 40.6869 44.8026 40.6178C44.8364 40.4291 44.8721 40.2256 44.889 40.037C44.9397 39.8483 44.9585 39.6616 44.9754 39.4729C45.0336 38.9164 45.043 38.358 44.9998 37.723C44.9998 37.7118 44.9998 37.7006 44.996 37.6894C44.9679 37.4765 44.9528 37.202 44.9059 36.9611C44.7144 35.7191 44.2788 34.4847 43.6629 33.3884C43.584 33.2465 43.4995 33.1064 43.4132 32.9701C43.3005 32.7926 43.1747 32.6283 43.0583 32.4546C42.9963 32.3724 42.9344 32.2921 42.8705 32.2118C42.8386 32.1726 42.8067 32.1334 42.7729 32.0942C42.7579 32.0755 42.6828 32.0101 42.6828 31.9877C42.3936 31.6516 42.3992 31.1566 42.6922 30.8242L45.1857 28.0061C45.5405 27.6045 46.1696 27.6027 46.5263 28.0023C46.6559 28.1461 46.7798 28.2918 46.9 28.4356C47.1065 28.6746 47.2943 28.9137 47.467 29.1695C47.5177 29.2218 47.5703 29.2891 47.6041 29.3582C47.7243 29.5113 47.8444 29.6831 47.9477 29.8531C47.9646 29.8699 47.9815 29.8886 47.9984 29.9222C48.188 30.1967 48.3589 30.4862 48.5316 30.7943C48.8921 31.4443 49.2189 32.1091 49.493 32.8113C49.5794 33.0672 49.6657 33.3062 49.7502 33.5621C49.8366 33.8011 49.9042 34.057 49.9737 34.296C50.1445 34.8432 50.2666 35.4072 50.3511 35.9712C50.3849 36.1431 50.4018 36.313 50.4206 36.4848C50.4375 36.6212 50.4543 36.7575 50.4712 36.9125C50.5219 37.4242 50.5576 37.9546 50.5576 38.485L50.5539 38.4831Z" fill="white"/>
<path d="M43.3042 38.5C43.3042 38.8082 43.2873 39.1145 43.2536 39.4226C43.2198 39.7121 43.1672 40.0203 43.0996 40.3116C43.0489 40.6011 42.9625 40.9092 42.8592 41.1819C42.7729 41.4714 42.6696 41.7459 42.5325 42.0186C42.4293 42.2576 42.3091 42.4798 42.172 42.7021C42.0331 42.9617 41.8772 43.2157 41.7045 43.4585C41.3703 43.9291 40.6849 43.972 40.3 43.5425L36.3588 39.1388C36.0584 38.8026 36.0565 38.2965 36.357 37.9585L40.5253 33.2634C40.8013 32.9534 41.297 32.9814 41.5336 33.3231C41.62 33.4427 42.0143 34.0235 42.1176 34.1934C42.2377 34.382 42.341 34.5856 42.4274 34.7742C42.5307 34.9629 42.617 35.1496 42.6846 35.3551C42.7015 35.3719 42.7184 35.3887 42.7184 35.4223C42.8048 35.6445 42.8912 35.8836 42.9588 36.1226C42.9588 36.1394 42.9757 36.1562 42.9588 36.1749C43.0451 36.3972 43.0958 36.6362 43.1484 36.8753C43.1991 37.1143 43.2348 37.3534 43.2517 37.5943C43.2855 37.8837 43.3024 38.1919 43.3024 38.5H43.3042Z" fill="white"/>
<path d="M65.0174 38.4832C65.0174 46.3998 61.8742 53.9915 56.2769 59.667C55.7925 60.1582 54.9889 60.1321 54.5326 59.6166L52.1386 56.9124C51.8945 56.6378 51.9076 56.2214 52.1686 55.9618C52.3414 55.8086 53.8698 54.1334 54.0238 53.928C54.8143 52.955 55.5184 51.9297 56.1361 50.8521C58.3348 47.1282 59.4858 42.857 59.4858 38.4832C59.4858 34.1093 58.3348 29.8214 56.153 26.1124C55.8789 25.6511 55.6029 25.1898 55.2949 24.7453C55.2255 24.6426 55.1579 24.5399 55.0884 24.4372C54.7955 24.0095 54.4875 23.5837 54.1608 23.1896C53.8003 22.7451 53.4398 22.3007 53.0436 21.8917C52.8258 21.647 52.593 21.4024 52.3545 21.1614C52.0222 20.8272 52.0034 20.2968 52.317 19.9438L54.7955 17.1536C55.1372 16.7689 55.7362 16.7521 56.1023 17.1163C61.7916 22.7545 65.0174 30.4601 65.0174 38.4794V38.4832Z" fill="white"/>
<path d="M57.7678 38.4831C57.7678 42.5488 56.7031 46.5305 54.6584 49.9986C54.3148 50.6149 53.9374 51.1957 53.5243 51.7597C53.2145 52.1874 52.8896 52.6132 52.546 53.024C52.546 53.0577 52.5122 53.0763 52.4953 53.1099C52.1179 53.5712 51.7048 54.0157 51.2936 54.4247L51.2748 54.4453C50.9181 54.8356 50.2966 54.8318 49.9455 54.4341L47.3149 51.4609C47.0915 51.2088 47.1008 50.8296 47.3337 50.5869C47.6059 50.3067 47.8632 50.0191 48.1148 49.724C48.1655 49.6717 48.2011 49.6213 48.2518 49.569C48.7663 48.9378 49.2301 48.2879 49.6601 47.6043C49.814 47.3653 49.953 47.1262 50.0901 46.8872C50.4675 46.2037 50.7942 45.5033 51.0871 44.7862C51.1904 44.5116 51.2936 44.239 51.38 43.9663C51.534 43.5218 51.6541 43.0605 51.7743 42.5993C51.825 42.3938 51.8776 42.1884 51.9114 41.9661C51.9808 41.6916 52.0315 41.4021 52.0653 41.1127C52.2024 40.2405 52.2719 39.3702 52.2719 38.4813C52.2719 37.5923 52.2024 36.722 52.0653 35.8498C52.0315 35.5753 51.979 35.2858 51.9114 34.9964C51.8776 34.7741 51.825 34.5519 51.7574 34.3296C51.6879 33.9879 51.5865 33.6461 51.4833 33.3211C51.3969 33.0466 51.3105 32.774 51.2091 32.5013C51.1077 32.2286 51.0026 31.9541 50.8824 31.6982C50.659 31.1697 50.4017 30.6393 50.1257 30.1257C49.4272 28.8502 48.5541 27.6493 47.5402 26.5624C47.2304 26.23 47.2229 25.7183 47.5233 25.3765L49.983 22.5845C50.3285 22.1923 50.9388 22.1773 51.3011 22.5565C51.6917 22.9636 52.1273 23.4286 52.255 23.6004C52.4089 23.7536 52.5479 23.9086 52.685 24.0785C53.0286 24.5062 53.3553 24.9507 53.6632 25.3933C54.0237 25.8882 54.3504 26.4186 54.6602 26.9658C56.705 30.4171 57.7696 34.3987 57.7696 38.4813L57.7678 38.4831Z" fill="white"/>
<path d="M51.5621 61.0696H43.6065C43.3399 61.0696 43.0883 60.9519 42.9174 60.7484L27.1076 41.7552C26.9743 41.5964 26.903 41.3947 26.903 41.1874V35.8144C26.903 35.6071 26.9762 35.4073 27.1076 35.2467L42.9174 16.2535C43.0864 16.0499 43.3399 15.9323 43.6065 15.9323H51.6147C52.3845 15.9323 52.7938 16.8362 52.285 17.4095L34.0718 37.9472C33.7733 38.2834 33.7733 38.7876 34.0718 39.1238L52.2343 59.5942C52.7432 60.1676 52.3338 61.0715 51.564 61.0715L51.5621 61.0696Z" fill="white"/>
<path d="M24.4958 15.9266H17.0603C16.7907 15.9266 16.5721 16.144 16.5721 16.4122V60.5878C16.5721 60.8559 16.7907 61.0733 17.0603 61.0733H24.4958C24.7654 61.0733 24.984 60.8559 24.984 60.5878V16.4122C24.984 16.144 24.7654 15.9266 24.4958 15.9266Z" fill="white"/>
<path d="M50.5539 38.4831C50.5539 39.0135 50.5201 39.542 50.4675 40.0556C50.4506 40.2088 50.4337 40.3451 50.4168 40.4833C50.3999 40.6551 50.383 40.8251 50.3473 40.9969C50.3135 41.2005 50.2779 41.4059 50.2272 41.6113C50.1934 41.8149 50.1408 42.0203 50.0901 42.2257C49.953 42.7898 49.7803 43.337 49.5925 43.8842C49.3184 44.6013 49.0086 45.3016 48.6312 45.9852C48.0021 47.1468 47.2135 48.2356 46.2822 49.2179C46.0193 49.4962 45.5706 49.4906 45.3171 49.203L42.4706 45.9852C42.2734 45.7611 42.2716 45.4268 42.4706 45.2027C42.6527 44.9954 42.8574 44.7563 42.9644 44.6162C42.9813 44.5994 42.9982 44.5658 43.0151 44.5303C43.2048 44.2913 43.3587 44.0522 43.5127 43.7945C43.5822 43.7086 43.6498 43.6059 43.7023 43.4882C43.8056 43.2996 43.9089 43.1128 43.9952 42.9074C44.0647 42.8047 44.1154 42.6852 44.1492 42.5656C44.2694 42.3434 44.3558 42.1044 44.4421 41.8653C44.4759 41.7794 44.4928 41.7122 44.5116 41.6263C44.6149 41.3536 44.6825 41.0959 44.7519 40.8232C44.7688 40.7541 44.7857 40.6869 44.8026 40.6178C44.8364 40.4291 44.8721 40.2256 44.889 40.037C44.9397 39.8483 44.9585 39.6616 44.9754 39.4729C45.0336 38.9164 45.043 38.358 44.9998 37.723C44.9998 37.7118 44.9998 37.7006 44.996 37.6894C44.9679 37.4765 44.9528 37.202 44.9059 36.9611C44.7144 35.7191 44.2788 34.4847 43.6629 33.3884C43.584 33.2465 43.4995 33.1064 43.4132 32.9701C43.3005 32.7926 43.1747 32.6283 43.0583 32.4546C42.9963 32.3724 42.9344 32.2921 42.8705 32.2118C42.8386 32.1726 42.8067 32.1334 42.7729 32.0942C42.7579 32.0755 42.6828 32.0101 42.6828 31.9877C42.3936 31.6516 42.3992 31.1566 42.6922 30.8242L45.1857 28.0061C45.5405 27.6045 46.1696 27.6027 46.5263 28.0023C46.6559 28.1461 46.7798 28.2918 46.9 28.4356C47.1065 28.6746 47.2943 28.9137 47.467 29.1695C47.5177 29.2218 47.5703 29.2891 47.6041 29.3582C47.7243 29.5113 47.8444 29.6831 47.9477 29.8531C47.9646 29.8699 47.9815 29.8886 47.9984 29.9222C48.188 30.1967 48.3589 30.4862 48.5316 30.7943C48.8921 31.4443 49.2189 32.1091 49.493 32.8113C49.5794 33.0672 49.6657 33.3062 49.7502 33.5621C49.8366 33.8011 49.9042 34.057 49.9737 34.296C50.1445 34.8432 50.2666 35.4072 50.3511 35.9712C50.3849 36.1431 50.4018 36.313 50.4206 36.4848C50.4375 36.6212 50.4543 36.7575 50.4712 36.9125C50.5219 37.4242 50.5576 37.9546 50.5576 38.485L50.5539 38.4831Z" fill="white"/>
<path d="M43.3042 38.5C43.3042 38.8082 43.2873 39.1145 43.2536 39.4226C43.2198 39.7121 43.1672 40.0203 43.0996 40.3116C43.0489 40.6011 42.9625 40.9092 42.8592 41.1819C42.7729 41.4714 42.6696 41.7459 42.5325 42.0186C42.4293 42.2576 42.3091 42.4798 42.172 42.7021C42.0331 42.9617 41.8772 43.2157 41.7045 43.4585C41.3703 43.9291 40.6849 43.972 40.3 43.5425L36.3588 39.1388C36.0584 38.8026 36.0565 38.2965 36.357 37.9585L40.5253 33.2634C40.8013 32.9534 41.297 32.9814 41.5336 33.3231C41.62 33.4427 42.0143 34.0235 42.1176 34.1934C42.2377 34.382 42.341 34.5856 42.4274 34.7742C42.5307 34.9629 42.617 35.1496 42.6846 35.3551C42.7015 35.3719 42.7184 35.3887 42.7184 35.4223C42.8048 35.6445 42.8912 35.8836 42.9588 36.1226C42.9588 36.1394 42.9757 36.1562 42.9588 36.1749C43.0451 36.3972 43.0958 36.6362 43.1484 36.8753C43.1991 37.1143 43.2348 37.3534 43.2517 37.5943C43.2855 37.8837 43.3024 38.1919 43.3024 38.5H43.3042Z" fill="white"/>
<path d="M65.0174 38.4832C65.0174 46.3998 61.8742 53.9915 56.2769 59.667C55.7925 60.1582 54.9889 60.1321 54.5326 59.6166L52.1386 56.9124C51.8945 56.6378 51.9076 56.2214 52.1686 55.9618C52.3414 55.8086 53.8698 54.1334 54.0238 53.928C54.8143 52.955 55.5184 51.9297 56.1361 50.8521C58.3348 47.1282 59.4858 42.857 59.4858 38.4832C59.4858 34.1093 58.3348 29.8214 56.153 26.1124C55.8789 25.6511 55.6029 25.1898 55.2949 24.7453C55.2255 24.6426 55.1579 24.5399 55.0884 24.4372C54.7955 24.0095 54.4875 23.5837 54.1608 23.1896C53.8003 22.7451 53.4398 22.3007 53.0436 21.8917C52.8258 21.647 52.593 21.4024 52.3545 21.1614C52.0222 20.8272 52.0034 20.2968 52.317 19.9438L54.7955 17.1536C55.1372 16.7689 55.7362 16.7521 56.1023 17.1163C61.7916 22.7545 65.0174 30.4601 65.0174 38.4794V38.4832Z" fill="white"/>
<path d="M57.7678 38.4831C57.7678 42.5488 56.7031 46.5305 54.6584 49.9986C54.3148 50.6149 53.9374 51.1957 53.5243 51.7597C53.2145 52.1874 52.8896 52.6132 52.546 53.024C52.546 53.0577 52.5122 53.0763 52.4953 53.1099C52.1179 53.5712 51.7048 54.0157 51.2936 54.4247L51.2748 54.4453C50.9181 54.8356 50.2966 54.8318 49.9455 54.4341L47.3149 51.4609C47.0915 51.2088 47.1008 50.8296 47.3337 50.5869C47.6059 50.3067 47.8632 50.0191 48.1148 49.724C48.1655 49.6717 48.2011 49.6213 48.2518 49.569C48.7663 48.9378 49.2301 48.2879 49.6601 47.6043C49.814 47.3653 49.953 47.1262 50.0901 46.8872C50.4675 46.2037 50.7942 45.5033 51.0871 44.7862C51.1904 44.5116 51.2936 44.239 51.38 43.9663C51.534 43.5218 51.6541 43.0605 51.7743 42.5993C51.825 42.3938 51.8776 42.1884 51.9114 41.9661C51.9808 41.6916 52.0315 41.4021 52.0653 41.1127C52.2024 40.2405 52.2719 39.3702 52.2719 38.4813C52.2719 37.5923 52.2024 36.722 52.0653 35.8498C52.0315 35.5753 51.979 35.2858 51.9114 34.9964C51.8776 34.7741 51.825 34.5519 51.7574 34.3296C51.6879 33.9879 51.5865 33.6461 51.4833 33.3211C51.3969 33.0466 51.3105 32.774 51.2091 32.5013C51.1077 32.2286 51.0026 31.9541 50.8824 31.6982C50.659 31.1697 50.4017 30.6393 50.1257 30.1257C49.4272 28.8502 48.5541 27.6493 47.5402 26.5624C47.2304 26.23 47.2229 25.7183 47.5233 25.3765L49.983 22.5845C50.3285 22.1923 50.9388 22.1773 51.3011 22.5565C51.6917 22.9636 52.1273 23.4286 52.255 23.6004C52.4089 23.7536 52.5479 23.9086 52.685 24.0785C53.0286 24.5062 53.3553 24.9507 53.6632 25.3933C54.0237 25.8882 54.3504 26.4186 54.6602 26.9658C56.705 30.4171 57.7696 34.3987 57.7696 38.4813L57.7678 38.4831Z" fill="white"/>
</g>
<defs>
<linearGradient id="paint0_linear_51_2" x1="1.20545" y1="79.6127" x2="66.1267" y2="7.67167" gradientUnits="userSpaceOnUse">
<stop stop-color="#E98C31"/>
<stop offset="0.08" stop-color="#EA9333"/>
<stop offset="0.45" stop-color="#EEB13B"/>
<stop offset="0.77" stop-color="#F1C341"/>
<stop offset="1" stop-color="#F2CA43"/>
</linearGradient>
<clipPath id="clip0_51_2">
<rect width="253" height="77" fill="white"/>
</clipPath>
</defs>
</svg>
